<?xml version="1.0" encoding="utf-8"?>
<!-- Generator: Adobe Illustrator 27.5.0, SVG Export Plug-In . SVG Version: 6.00 Build 0)  -->
<svg version="1.1" id="Layer_1" xmlns="http://www.w3.org/2000/svg" xmlns:xlink="http://www.w3.org/1999/xlink" x="0px" y="0px"
	 viewBox="0 0 512 335.4" style="enable-background:new 0 0 512 335.4;" xml:space="preserve">
<style type="text/css">
	.st0{fill:#FDB913;}
	.st1{enable-background:new    ;}
	.st2{fill:#FFFFFF;}
</style>
<path class="st0" d="M503.2,335.4H8.8c-4.9,0-8.8-4-8.8-8.8V8.8C0,3.9,4,0,8.8,0h494.3c4.9,0,8.8,4,8.8,8.8v317.8
	C512,331.5,508,335.4,503.2,335.4z"/>
<g class="st1">
	<path class="st2" d="M146.8,102.8c-10.6,0-18.9,5-24.7,15.1c-5.8,10.1-8.8,24.1-8.8,42.1c0,37.4,11.2,56.1,33.5,56.1
		c9.4,0,20.7-2.9,34-8.8v29.8c-11,5.7-23.2,8.6-36.7,8.6c-19.4,0-34.3-7.4-44.5-22.2c-10.3-14.8-15.5-36.1-15.5-63.8
		c0-17.4,2.5-32.7,7.6-45.8s12.3-23.2,21.8-30.2s20.6-10.5,33.3-10.5c13,0,26,3.9,39.1,11.8l-9.1,28.9c-5-3-10-5.6-15.1-7.8
		C156.6,103.9,151.6,102.8,146.8,102.8z"/>
	<path class="st2" d="M318.6,243.4h-28.2V171h-52.9v72.4h-28.3V75.6h28.3v65.8h52.9V75.6h28.2V243.4z"/>
	<path class="st2" d="M429.1,243.4h-76.9V75.6h76.9v29.1h-48.6v36.8h45.2v29.2h-45.2V214h48.6V243.4z"/>
</g>
</svg>
