<?xml version="1.0" encoding="utf-8"?>
<!-- Generator: Adobe Illustrator 27.5.0, SVG Export Plug-In . SVG Version: 6.00 Build 0)  -->
<svg version="1.1" id="Layer_1" xmlns="http://www.w3.org/2000/svg" xmlns:xlink="http://www.w3.org/1999/xlink" x="0px" y="0px"
	 viewBox="0 0 512 335.4" style="enable-background:new 0 0 512 335.4;" xml:space="preserve">
<style type="text/css">
	.st0{fill:#00AEEF;}
	.st1{enable-background:new    ;}
	.st2{fill:#FFFFFF;}
</style>
<path class="st0" d="M503.2,335.4H8.8c-4.9,0-8.8-4-8.8-8.8V8.8C0,3.9,4,0,8.8,0h494.3c4.9,0,8.8,4,8.8,8.8v317.8
	C512,331.5,508,335.4,503.2,335.4z"/>
<g class="st1">
	<path class="st2" d="M83.1,243.4L51,111.8h-0.8c1.2,26.8,1.7,44.6,1.7,53.6v78H26.6V75.6h38.5l31.6,128.3h0.5l33.5-128.3h38.5
		v167.8h-26.4V164c0-3.7,0-8.1,0.1-13s0.5-17.9,1.2-39h-0.8L109,243.4H83.1z"/>
	<path class="st2" d="M311.5,75.6v108.6c0,12.4-2.2,23.3-6.6,32.6c-4.4,9.3-10.8,16.5-19.1,21.5c-8.3,5-18.2,7.5-29.6,7.5
		c-17.2,0-30.5-5.5-40-16.6S202,203,202,183.8V75.6h28.2v102.7c0,12.9,2.1,22.4,6.2,28.5c4.1,6,11,9.1,20.5,9.1c9.2,0,16-3,20.1-9.1
		c4.2-6.1,6.3-15.6,6.3-28.6V75.6H311.5z"/>
	<path class="st2" d="M400.7,243.4l-32.1-131.6h-0.8c1.2,26.8,1.7,44.6,1.7,53.6v78h-25.3V75.6h38.5l31.6,128.3h0.5l33.5-128.3h38.5
		v167.8h-26.4V164c0-3.7,0-8.1,0.1-13s0.5-17.9,1.2-39H461l-34.4,131.4H400.7z"/>
</g>
</svg>
