<?xml version="1.0" encoding="utf-8"?>
<!-- Generator: Adobe Illustrator 25.4.1, SVG Export Plug-In . SVG Version: 6.00 Build 0)  -->
<svg version="1.1" id="Layer_1" xmlns="http://www.w3.org/2000/svg" xmlns:xlink="http://www.w3.org/1999/xlink" x="0px" y="0px"
	 viewBox="0 0 512 335" style="enable-background:new 0 0 512 335;" xml:space="preserve">
<style type="text/css">
	.st0{fill:#A82355;}
	.st1{enable-background:new    ;}
	.st2{fill:#FFFDFE;}
</style>
<path class="st0" d="M503.2,335.2H8.8c-4.9,0-8.8-4-8.8-8.8V8.6c0-4.9,4-8.8,8.8-8.8h494.3c4.9,0,8.8,4,8.8,8.8v317.8
	C512,331.3,508,335.2,503.2,335.2z"/>
<g class="st1">
	<path class="st2" d="M111.7,210.7h63.6v26H83V68.3h28.7V210.7z"/>
	<path class="st2" d="M302.1,68.3v111.8c0,18.9-5.3,33.5-15.9,43.7c-10.6,10.3-24.5,15.4-41.6,15.4c-17.1,0-30.9-5.1-41.4-15.4
		c-10.5-10.3-15.8-24.8-15.8-43.7V68.3h28.8V180c0,11.1,2.5,19.4,7.6,24.9c5,5.5,12,8.3,20.8,8.3c9,0,16-2.7,21.1-8.2
		c5.1-5.5,7.7-13.8,7.7-25V68.3H302.1z"/>
	<path class="st2" d="M435,179.4l0.2,0.7c0.3,18.1-4.4,32.5-14.1,43.2c-9.7,10.6-23.1,16-40.2,16c-17.2,0-31.2-6.5-41.9-19.6
		c-10.7-13-16.1-29.8-16.1-50.3v-33.4c0-20.4,5.2-37.2,15.7-50.3c10.5-13.1,24.1-19.7,40.8-19.7c17.7,0,31.5,5.3,41.4,16
		c9.9,10.7,14.8,25.2,14.5,43.7l-0.2,0.7h-27.9c0-11.1-2.3-19.6-6.8-25.5c-4.5-5.9-11.5-8.9-21.1-8.9c-8.6,0-15.4,4.1-20.4,12.3
		c-5,8.2-7.6,18.7-7.6,31.4v33.6c0,12.9,2.7,23.4,8,31.6c5.3,8.2,12.5,12.3,21.5,12.3c9,0,15.6-2.8,19.9-8.5
		c4.3-5.7,6.4-14.1,6.4-25.3H435z"/>
</g>
</svg>
