<?xml version="1.0" encoding="utf-8"?>
<!-- Generator: Adobe Illustrator 25.4.1, SVG Export Plug-In . SVG Version: 6.00 Build 0)  -->
<svg version="1.1" id="Layer_1" xmlns="http://www.w3.org/2000/svg" xmlns:xlink="http://www.w3.org/1999/xlink" x="0px" y="0px"
	 viewBox="0 0 512 335" style="enable-background:new 0 0 512 335;" xml:space="preserve">
<style type="text/css">
	.st0{fill:#1B3659;}
	.st1{fill:#FFFDFE;}
</style>
<path class="st0" d="M503.2,335.2H8.8c-4.9,0-8.8-4-8.8-8.8V8.6c0-4.9,4-8.8,8.8-8.8h494.3c4.9,0,8.8,4,8.8,8.8v317.8
	C512,331.3,508,335.2,503.2,335.2z"/>
<g>
	<path class="st1" d="M192.8,213.7c-4.3,6.6-10.9,12.5-19.9,17.7c-9,5.2-20.4,7.8-34.1,7.8c-17.5,0-31.7-6.4-42.8-19.2
		c-11.1-12.8-16.6-29.4-16.6-49.9v-35.2c0-20.4,5.3-37,16-49.8c10.6-12.8,24.3-19.3,41.1-19.3c17.4,0,30.7,5,40,15
		c9.3,10,14,23.1,14.2,39.4l-0.2,0.7h-27c-0.5-8.9-2.9-16-7.3-21.2c-4.3-5.2-10.6-7.8-18.9-7.8c-8.8,0-15.8,4-21.2,12
		c-5.4,8-8,18.2-8,30.8V170c0,12.8,2.8,23.2,8.3,31.2c5.6,8,13.1,12,22.5,12c6.7,0,12-0.8,16.1-2.4c4.1-1.6,7.1-3.6,9.2-6v-31.2
		h-25.3v-23.4h54V213.7z"/>
	<path class="st1" d="M330.5,68.3v111.8c0,18.9-5.3,33.5-15.9,43.7c-10.6,10.3-24.5,15.4-41.6,15.4c-17.1,0-30.9-5.1-41.4-15.4
		c-10.5-10.3-15.8-24.8-15.8-43.7V68.3h28.8V180c0,11.1,2.5,19.4,7.6,24.9c5,5.5,12,8.3,20.8,8.3c9,0,16-2.7,21.1-8.2
		c5.1-5.5,7.7-13.8,7.7-25V68.3H330.5z"/>
	<path class="st1" d="M415.4,68.3H444v117.9c0,16.3-4.5,29.2-13.5,38.7c-9,9.5-20.4,14.3-34.1,14.3c-14.9,0-26.7-4.3-35.4-12.8
		s-12.9-21.2-12.6-37.8l0.2-0.7h27.9c0,8.8,1.8,15.3,5.4,19.3c3.6,4,8.4,6,14.5,6c5.3,0,9.8-2.4,13.5-7.2c3.7-4.8,5.5-11.4,5.5-19.8
		V68.3z"/>
</g>
</svg>
